<svg width="42" height="42" viewBox="0 0 42 42" fill="none" xmlns="http://www.w3.org/2000/svg">
<g clip-path="url(#clip0_29_131)">
<path d="M37.1105 16.936V5.83711H35.8712C33.2537 5.83711 31.2033 3.81752 31.2033 1.23927V0H10.7967V1.23927C10.7967 3.81752 8.74632 5.83711 6.12882 5.83711H4.88955V16.9371C2.68663 18.0133 1.49438 18.9758 1.17175 19.1881V29.6634L3.12847 28.2741C3.91623 27.7148 4.77918 27.1997 5.70598 26.7307C7.01961 30.7033 9.83415 34.0211 13.6001 35.9718C15.4882 36.9497 17.2611 38.2611 18.8696 39.8696L21 42.0001L23.1305 39.8696C24.739 38.2611 26.5119 36.9497 28.3999 35.9718C32.1663 34.021 34.9809 30.7028 36.2944 26.7298C37.2211 27.1987 38.0841 27.7135 38.8717 28.2726L40.8283 29.6614V19.1863C40.4935 18.9661 39.3085 18.0095 37.1105 16.936ZM7.36809 8.21262C10.3227 7.71477 12.6573 5.44633 13.1698 2.47853H28.8303C29.3421 5.44303 31.6742 7.71427 34.632 8.21262V15.8718C33.8337 15.5725 33.0059 15.3009 32.1534 15.0573V10.0795C31.7778 9.824 28.9075 8.81061 27.3123 5.63949L26.9691 4.95707H15.031L14.6877 5.63949C13.8107 7.38306 12.4079 8.76054 10.5185 9.73353L9.84654 10.0795V15.0578C8.99409 15.3015 8.16626 15.5731 7.36801 15.8724L7.36809 8.21262ZM12.3252 14.4437V11.5675C14.1198 10.5141 15.5296 9.12861 16.5295 7.4356H25.4706C26.4705 9.12861 27.8804 10.5141 29.6749 11.5675V14.4435C24.1063 13.2679 17.8965 13.2673 12.3252 14.4437ZM27.2601 33.7709C23.5209 35.7075 21.2746 38.2545 21 38.4949C20.7337 38.262 18.468 35.7017 14.74 33.7709C11.482 32.0835 9.06431 29.1886 7.98599 25.7292C8.73822 25.4391 9.52293 25.1741 10.3342 24.9362C11.2023 27.7929 13.171 30.167 15.88 31.5701C18.7394 33.0513 20.5216 34.6954 21 35.0535C21.4837 34.6915 23.2623 33.0503 26.1202 31.5701C28.8291 30.167 30.7979 27.7925 31.666 24.9358C32.4772 25.1736 33.2618 25.4384 34.0143 25.7286C32.936 29.1882 30.5183 32.0833 27.2601 33.7709ZM24.9801 29.3692H24.9802C23.6046 30.0816 22.2694 30.9257 20.9999 31.8848C19.7306 30.9258 18.3955 30.0818 17.0198 29.3692C14.9464 28.2953 13.4312 26.4914 12.7394 24.3199C18.0096 23.1946 23.9859 23.1938 29.2605 24.3196C28.5689 26.4912 27.0537 28.2953 24.9801 29.3692ZM38.3498 25.0182C37.892 24.7617 37.4178 24.517 36.9296 24.2833L36.9334 24.2667C27.3295 20.47 18.0206 19.1445 5.06685 24.2678L5.07057 24.2843C4.58238 24.5182 4.10815 24.763 3.65037 25.0195V20.4815C12.5557 14.6108 29.2892 14.5099 38.3498 20.48L38.3498 25.0182Z" fill="#FC6441"/>
</g>
<defs>
<clipPath id="clip0_29_131">
<rect width="42" height="42" fill="white"/>
</clipPath>
</defs>
</svg>
